<?xml version="1.0" standalone="no"?>
<!DOCTYPE svg PUBLIC "-//W3C//DTD SVG 20010904//EN"
 "http://www.w3.org/TR/2001/REC-SVG-20010904/DTD/svg10.dtd">
<svg version="1.0" xmlns="http://www.w3.org/2000/svg"
 width="570.000000pt" height="570.000000pt" viewBox="0 0 570.000000 570.000000"
 preserveAspectRatio="xMidYMid meet">

<g transform="translate(0.000000,570.000000) scale(0.100000,-0.100000)"
fill="#000000" stroke="none">
<path d="M1985 4896 c-192 -61 -428 -253 -559 -456 -38 -58 -86 -120 -107
-138 -33 -28 -39 -40 -39 -72 0 -46 34 -91 90 -120 58 -30 86 -71 105 -152 19
-85 24 -92 85 -123 26 -13 63 -44 84 -69 20 -25 43 -46 50 -46 34 0 34 -23 1
-84 -46 -84 -91 -222 -111 -341 -22 -133 -14 -347 21 -549 14 -83 25 -161 25
-175 0 -31 -51 -143 -86 -188 -18 -24 -36 -34 -76 -43 -52 -11 -135 -49 -110
-50 7 0 10 -4 7 -10 -3 -5 4 -28 17 -50 20 -36 26 -40 51 -36 20 4 26 2 21 -7
-4 -6 3 -3 15 9 12 11 37 48 54 81 18 33 54 88 82 122 l49 62 17 -88 c9 -48
38 -173 62 -278 73 -304 99 -516 94 -770 -3 -133 -5 -155 -25 -193 -17 -32
-22 -56 -20 -95 l3 -52 55 -19 c39 -13 88 -18 168 -20 l113 -1 -5 -27 c-11
-55 3 -85 48 -104 53 -22 318 -31 426 -15 108 17 120 27 120 104 0 54 -5 71
-31 113 -57 88 -62 109 -44 165 12 36 15 66 10 111 -4 37 1 130 10 223 9 88
18 246 21 350 2 105 6 200 9 212 3 13 18 29 33 37 29 15 94 82 123 126 9 14
20 22 23 19 3 -3 12 -82 20 -175 35 -410 31 -543 -22 -660 -37 -83 -47 -186
-26 -283 13 -64 13 -66 -18 -134 -31 -72 -33 -121 -7 -153 46 -56 413 -71 518
-21 22 10 26 19 29 63 3 45 -3 63 -44 140 l-46 89 17 48 c14 40 15 57 6 110
-8 47 -7 92 4 191 7 70 17 131 20 134 4 4 52 5 108 4 87 -3 114 0 179 21 43
14 100 39 127 56 109 70 195 199 208 312 4 36 14 64 30 83 15 18 23 39 21 55
-3 23 -9 27 -48 32 -25 4 -61 12 -80 18 -85 27 -170 -56 -138 -138 30 -79 -89
-183 -211 -184 -59 0 -132 28 -149 58 -5 10 1 76 14 168 37 258 55 463 61 695
3 122 9 222 14 222 4 0 17 -15 28 -34 35 -56 155 -162 217 -191 93 -44 214
-45 214 0 0 7 -15 17 -32 20 -108 24 -234 128 -308 255 -44 75 -80 161 -80
190 0 17 2 18 26 5 15 -7 34 -11 43 -7 32 11 83 56 112 99 17 24 47 52 67 62
47 24 77 56 97 103 16 39 41 60 85 73 36 11 59 34 85 86 28 55 57 75 127 90
29 6 61 18 70 26 9 8 29 49 44 91 24 68 36 85 101 148 55 53 73 77 73 97 0 30
-109 232 -192 355 -108 161 -313 336 -443 376 -70 23 -232 18 -391 -10 l-101
-18 -53 23 c-43 19 -85 25 -204 33 -210 14 -283 6 -368 -36 -63 -32 -71 -33
-96 -20 -38 18 -176 50 -299 69 -123 18 -233 18 -288 1z m340 -47 c126 -21
211 -45 221 -60 3 -6 -22 -41 -57 -77 -68 -69 -63 -68 47 15 38 29 98 67 134
85 l65 33 220 0 c218 0 221 -1 278 -28 71 -32 198 -151 227 -212 21 -43 27
-125 10 -125 -5 0 -10 12 -10 26 0 35 -61 97 -92 92 -20 -3 -23 -9 -22 -43 0
-26 10 -57 28 -85 26 -44 27 -44 21 -12 -4 20 -3 32 4 32 6 0 11 -9 11 -20 0
-11 23 -65 50 -120 28 -55 50 -113 50 -129 0 -20 -14 -45 -44 -80 -56 -67 -87
-167 -94 -304 -6 -120 4 -170 69 -339 27 -70 49 -140 49 -156 0 -20 -13 -40
-44 -71 l-44 -43 5 85 c3 46 2 102 -3 123 l-8 39 -6 -55 -5 -55 -13 55 c-26
117 -89 208 -172 250 -56 29 -150 27 -215 -3 -69 -33 -149 -122 -171 -192 -10
-30 -20 -53 -22 -50 -3 3 -8 22 -12 42 l-8 38 -1 -45 c0 -25 8 -82 18 -127 10
-46 17 -83 14 -83 -2 0 -26 22 -52 49 -33 34 -60 52 -84 56 -31 6 -35 11 -41
44 -5 35 17 144 44 215 5 14 23 94 41 178 35 171 34 204 -7 328 -25 73 -56
120 -79 120 -6 0 -20 -7 -31 -16 -14 -12 -15 -14 -3 -11 9 3 27 -2 39 -10 l22
-16 -30 -13 c-17 -7 -43 -31 -58 -54 -29 -43 -57 -60 -99 -60 -19 0 -30 -10
-46 -42 l-22 -43 -24 50 c-32 66 -27 133 15 199 17 27 40 86 53 139 18 73 29
99 54 124 49 49 146 58 160 14 7 -22 -15 -70 -71 -157 -32 -50 -74 -137 -74
-152 0 -4 16 21 35 55 19 34 55 90 81 125 52 70 94 152 94 184 0 12 -9 33 -21
48 -31 39 -83 36 -145 -9 -27 -19 -62 -42 -78 -51 -27 -15 -30 -15 -42 0 -10
14 -13 -6 -16 -106 -3 -101 -7 -130 -25 -163 -17 -33 -23 -37 -28 -22 -4 9 0
35 9 57 9 22 15 64 15 93 -1 47 -2 48 -8 17 -6 -33 -7 -34 -14 -10 -10 38 -8
129 4 152 8 15 8 19 0 14 -6 -4 -19 -23 -29 -43 l-19 -35 -37 51 c-71 96 -168
161 -240 161 -45 0 -97 -21 -105 -43 -7 -18 -24 -25 -98 -40 -49 -10 -95 -22
-102 -26 -7 -4 27 -11 76 -14 169 -11 255 -55 327 -165 38 -56 57 -75 105
-101 78 -41 91 -72 84 -196 -5 -84 -2 -98 35 -215 55 -173 74 -356 48 -474
-23 -100 -49 -131 -103 -121 -58 11 -152 63 -165 91 -20 44 9 186 66 317 22
51 4 49 -48 -6 -24 -25 -49 -65 -60 -97 -40 -112 -96 -127 -96 -26 0 91 45
209 110 291 64 80 -26 41 -104 -46 -43 -48 -76 -119 -76 -166 0 -28 -21 -39
-49 -24 -40 22 -43 43 -16 138 14 48 43 123 65 166 l39 77 -42 -29 c-39 -27
-166 -152 -141 -137 23 12 23 -25 1 -72 -13 -27 -30 -48 -41 -50 -14 -3 -17 0
-12 13 5 15 4 16 -9 5 -12 -10 -20 -9 -41 5 -30 20 -28 36 16 133 51 109 164
205 285 241 69 21 71 24 22 32 -63 10 -144 -4 -215 -36 -78 -35 -136 -76 -121
-85 7 -5 -2 -22 -27 -51 -33 -37 -33 -40 -6 -15 42 39 41 17 0 -30 -29 -33
-30 -36 -9 -24 l24 12 -19 -32 c-29 -51 -48 -58 -81 -34 -29 22 -39 58 -29
100 4 13 34 53 68 89 33 36 58 68 54 72 -3 3 -33 -15 -66 -40 -33 -26 -62 -47
-65 -47 -31 0 79 119 179 193 80 59 72 70 -32 43 -33 -9 -70 -16 -82 -16 -19
0 -21 2 -9 16 36 43 168 87 299 100 l75 7 -45 21 c-33 15 -64 20 -120 20 -91
-1 -136 -19 -272 -110 -120 -81 -188 -103 -188 -60 0 7 9 21 19 31 11 9 50 62
87 118 110 163 228 276 389 368 176 102 249 112 500 68z m1481 -40 c158 -59
334 -234 475 -471 114 -191 126 -231 73 -244 -31 -8 -69 8 -174 72 -47 29 -99
56 -115 59 -27 6 -24 1 35 -56 56 -55 140 -171 140 -194 0 -4 -24 13 -52 37
-97 81 -105 74 -24 -22 53 -62 54 -64 33 -75 -12 -6 -29 -29 -37 -53 -25 -67
-33 -68 -63 -7 -25 52 -23 76 6 59 6 -4 4 2 -7 14 -10 12 -21 36 -25 54 -8 40
-67 88 -148 118 -68 26 -177 38 -187 21 -4 -7 0 -11 11 -11 39 0 161 -69 211
-119 50 -50 132 -194 119 -208 -4 -3 -26 15 -50 40 -43 47 -71 58 -81 35 -3
-9 -9 -7 -17 6 -16 25 -91 107 -95 104 -1 -2 10 -30 26 -63 35 -74 90 -230 90
-255 0 -18 -30 -42 -47 -39 -4 1 -16 -1 -26 -6 -26 -11 -30 -3 -31 73 -2 72
-13 99 -65 155 -22 24 -89 67 -105 67 -3 0 10 -33 29 -72 40 -88 78 -246 73
-308 -2 -37 -7 -46 -25 -48 -25 -4 -28 4 -43 115 -20 150 -60 251 -132 329
l-40 44 17 107 c15 93 22 116 54 163 21 30 59 92 86 137 69 118 125 150 280
162 l80 7 -69 22 c-37 12 -83 22 -102 22 -27 0 -34 4 -34 19 0 30 -39 51 -93
51 -45 0 -52 -4 -108 -57 -59 -56 -59 -56 -80 -37 -21 19 -22 19 -15 -4 8 -23
-10 -92 -23 -92 -5 0 -11 21 -15 48 -9 65 -50 143 -114 215 -29 33 -50 63 -45
67 7 7 132 31 228 44 55 7 168 -5 221 -25z m-272 -672 c-1 -12 -3 -26 -3 -31
-1 -6 -6 -5 -12 1 -7 7 -8 24 -4 43 8 35 23 25 19 -13z m-876 11 c24 -24 14
-38 -15 -22 -16 7 -34 14 -41 14 -7 0 -10 5 -7 10 9 14 48 13 63 -2z m-3 -48
c10 -11 13 -20 7 -20 -6 0 -14 5 -17 11 -4 6 -19 7 -36 4 -16 -4 -29 -2 -29 3
0 28 50 30 75 2z m825 -23 c-27 -15 -36 -14 -25 2 3 6 16 11 28 11 21 0 21 -1
-3 -13z m-890 -47 c7 -13 21 -20 40 -20 17 0 30 -4 30 -10 0 -18 -46 -11 -65
10 -10 11 -22 20 -27 20 -9 0 9 -27 65 -94 32 -40 34 -53 7 -61 -25 -8 -46 4
-95 54 -21 23 -43 41 -49 41 -5 0 0 -11 12 -23 13 -13 27 -39 32 -58 13 -44
13 -119 0 -119 -5 0 -10 5 -10 12 0 6 -3 9 -6 5 -13 -13 21 -81 58 -118 28
-27 35 -39 24 -39 -24 0 -58 19 -79 44 -15 17 -14 13 3 -23 15 -29 17 -42 8
-39 -30 10 -68 111 -78 208 -6 52 -15 116 -22 142 -15 61 -3 76 65 81 29 2 57
4 64 5 7 1 17 -7 23 -18z m902 -2 c-6 -6 -15 -8 -19 -4 -4 4 -1 11 7 16 19 12
27 3 12 -12z m6 -60 c-17 -47 -55 -111 -61 -101 -8 13 19 83 44 109 29 31 30
30 17 -8z m-773 -49 c-4 -21 -11 -39 -17 -39 -6 0 -7 7 -4 16 3 9 6 34 6 57 1
34 3 39 11 24 6 -10 8 -35 4 -58z m-907 -243 c34 -18 75 -62 95 -101 21 -42
56 -72 94 -80 27 -5 32 -10 28 -28 -16 -67 -35 -233 -35 -306 0 -97 -17 -101
-23 -6 -2 33 -2 11 0 -48 2 -59 11 -151 19 -204 8 -53 12 -98 10 -100 -11 -11
-44 140 -57 257 -7 63 -7 55 -4 -50 2 -69 7 -134 11 -144 5 -13 4 -17 -3 -13
-12 7 -29 97 -44 221 -7 67 -8 66 -4 -28 2 -54 0 -95 -5 -90 -5 5 -15 47 -23
94 -18 101 -22 68 -6 -49 6 -45 9 -85 6 -87 -6 -7 -34 85 -46 157 -9 48 -10
44 -5 -31 3 -47 3 -82 0 -79 -3 3 -14 41 -25 85 -20 79 -27 77 -12 -3 15 -77
-7 -45 -24 35 -9 42 -18 82 -21 87 -5 13 5 -81 13 -115 13 -58 -11 -4 -28 62
-17 64 -18 67 -13 23 3 -27 8 -59 11 -70 3 -14 2 -17 -5 -10 -6 6 -22 62 -35
125 -14 63 -26 108 -26 99 -1 -18 26 -182 35 -214 5 -14 3 -17 -5 -10 -6 6
-20 46 -31 89 -22 87 -26 231 -9 306 15 67 83 205 110 223 28 20 24 20 57 3z
m1400 -38 c23 -11 56 -36 72 -56 36 -44 72 -135 68 -171 -3 -26 -4 -25 -22 9
-10 19 -34 54 -52 77 -117 144 -360 96 -441 -89 -23 -52 -36 -48 -27 10 18
125 87 206 204 239 57 16 142 8 198 -19z m-10 -107 c72 -37 126 -112 138 -192
l7 -44 -35 50 c-51 74 -114 109 -202 113 -103 5 -170 -22 -236 -96 -47 -52
-51 -54 -44 -27 19 85 94 175 165 201 55 20 164 17 207 -5z m0 -117 c44 -18
88 -58 109 -97 21 -41 8 -46 -30 -10 -54 52 -94 67 -177 67 -101 1 -157 -21
-215 -86 -42 -46 -45 -48 -45 -25 0 39 59 108 119 139 44 23 66 28 127 28 45
0 90 -6 112 -16z m-27 -75 c61 -13 124 -67 135 -114 l7 -30 -34 31 c-48 45
-94 65 -159 71 -88 8 -151 -11 -210 -64 -55 -49 -65 -41 -24 19 57 82 161 113
285 87z m-440 -68 c36 -36 38 -40 28 -72 -6 -19 -13 -88 -16 -154 -6 -136 8
-211 52 -263 32 -39 32 -42 -6 -32 -78 23 -131 83 -150 170 -14 63 -7 294 11
353 14 47 32 47 81 -2z m-536 -100 c45 -88 77 -124 195 -224 42 -36 43 -38 16
-32 -15 3 -42 8 -60 11 -26 4 -24 2 9 -9 22 -8 55 -21 73 -31 39 -20 44 -40 6
-26 -14 6 -33 10 -42 10 -9 -1 1 -7 22 -15 40 -14 74 -40 64 -50 -3 -3 -17 -1
-32 5 -15 5 -39 10 -54 9 -19 0 -13 -4 21 -13 50 -14 98 -43 105 -65 3 -9 -5
-8 -27 4 -18 9 -55 18 -84 20 l-52 4 42 -9 c64 -14 111 -39 139 -75 30 -40 31
-55 2 -28 -39 35 -88 55 -147 58 -31 2 -45 2 -31 -1 87 -18 130 -36 159 -69
33 -38 43 -69 13 -42 -30 27 -105 57 -145 57 -41 0 -100 -21 -112 -40 -4 -7 5
-5 23 4 68 35 176 12 224 -47 27 -34 21 -38 -18 -12 -46 32 -90 39 -142 25
-23 -6 -42 -12 -42 -13 0 -1 31 -2 70 -2 68 0 71 -1 107 -38 l38 -39 -35 21
c-42 25 -114 27 -150 5 -14 -9 -17 -13 -7 -10 50 16 69 17 100 7 18 -6 47 -25
62 -41 32 -34 30 -37 -11 -15 -53 27 -127 11 -171 -37 -18 -20 -18 -20 22 1
73 39 155 20 173 -41 6 -18 13 -163 17 -323 4 -159 13 -342 21 -405 7 -63 14
-133 14 -156 0 -57 -33 -103 -100 -137 -46 -24 -63 -27 -103 -22 -26 3 -55 8
-65 11 -9 3 1 -6 23 -20 31 -20 53 -26 100 -26 47 0 56 -3 47 -12 -22 -22
-122 -15 -172 11 -37 20 -42 21 -30 6 8 -10 29 -26 45 -37 40 -24 10 -23 -38
1 -20 10 -37 17 -37 14 0 -19 28 -48 63 -64 74 -33 162 -20 223 33 19 17 37
28 40 26 2 -3 -13 -21 -35 -41 -77 -70 -183 -75 -275 -12 -41 28 -42 26 -20
-16 21 -42 68 -59 162 -59 65 0 87 4 126 25 26 14 50 25 53 25 17 0 -55 -62
-82 -70 -27 -9 -26 -10 13 -6 30 3 42 1 39 -7 -9 -27 -52 -38 -137 -34 -71 2
-94 8 -138 32 -30 16 -60 41 -68 57 -18 35 -18 100 2 163 18 59 20 328 4 540
-5 72 -10 213 -11 315 -1 206 -13 202 -25 -8 -4 -68 -11 -119 -15 -115 -5 5
-12 112 -16 238 -8 233 -9 236 -29 50 -5 -49 -8 -56 -17 -40 -16 29 -19 243
-10 580 8 253 12 305 27 333 9 18 21 30 26 27 5 -3 30 -46 55 -94z m987 89
c52 -15 108 -70 108 -106 l0 -28 -27 26 c-37 34 -63 47 -122 58 -71 13 -156
-3 -209 -40 -54 -38 -68 -38 -45 1 21 36 65 72 108 87 39 14 140 15 187 2z
m-1137 -425 c11 -88 -12 -36 -29 64 -17 100 -21 236 -9 292 5 24 11 -17 19
-136 7 -93 15 -192 19 -220z m1456 303 c98 -196 206 -303 338 -338 54 -14 39
-29 -22 -23 -106 11 -196 61 -287 161 -57 61 -130 186 -130 220 0 17 38 62 52
62 4 0 26 -37 49 -82z m-343 42 c56 -12 122 -62 122 -92 0 -19 -1 -19 -29 4
-69 59 -209 63 -312 10 -63 -33 -73 -30 -36 10 47 50 85 65 194 77 7 0 34 -4
61 -9z m68 -96 c23 -13 44 -30 48 -39 7 -19 8 -19 -50 7 -66 29 -196 29 -274
-1 -58 -22 -71 -21 -49 5 51 61 239 78 325 28z m-25 -46 c21 -6 47 -20 56 -31
18 -19 17 -20 -12 -14 -113 25 -144 28 -199 22 -33 -4 -78 -14 -100 -21 -46
-17 -56 -17 -56 -4 0 10 50 38 90 51 39 12 179 10 221 -3z m-22 -49 c28 -6 61
-20 73 -31 l23 -20 -25 7 c-14 4 -70 9 -126 12 -76 4 -114 2 -156 -11 -66 -19
-68 -19 -68 -6 0 42 172 72 279 49z m-1535 -56 c3 -10 21 -86 40 -168 19 -83
55 -217 80 -298 53 -172 89 -307 83 -314 -3 -2 -11 13 -17 34 -25 76 -83 223
-87 219 -2 -2 12 -68 31 -147 19 -79 40 -187 46 -239 6 -52 13 -103 15 -112 2
-10 0 -18 -5 -18 -4 0 -10 19 -14 42 -4 23 -11 47 -16 53 -23 28 -146 596
-170 785 -12 105 -13 180 -1 180 5 0 12 -8 15 -17z m1585 -9 c46 -19 29 -36
-24 -24 -59 14 -193 12 -253 -4 -43 -11 -52 -11 -52 0 0 21 37 35 109 43 86 8
177 2 220 -15z m-23 -45 c62 -16 61 -42 -1 -35 -25 3 -65 9 -90 12 -25 3 -78
2 -117 -3 l-73 -8 120 -6 c126 -7 209 -23 203 -40 -4 -13 1 -13 -116 -5 -53 3
-113 2 -132 -2 -27 -7 -9 -10 85 -15 132 -7 168 -14 162 -31 -3 -8 -50 -10
-153 -9 l-149 2 140 -14 c77 -7 143 -14 148 -14 4 -1 7 -8 7 -16 0 -11 -10
-14 -42 -10 -113 12 -222 15 -208 5 8 -5 44 -10 80 -11 94 -1 163 -12 168 -27
3 -9 -25 -11 -130 -7 l-133 4 120 -14 c66 -7 123 -14 128 -14 15 -2 6 -21 -10
-22 -15 0 -15 -2 2 -9 23 -9 11 -16 -40 -23 -23 -3 -20 -4 13 -6 23 0 42 -5
42 -11 0 -6 -47 -11 -117 -12 l-118 -2 115 -5 c69 -4 114 -10 113 -16 -2 -5
-47 -13 -100 -16 l-98 -5 97 -2 c53 -1 99 -6 102 -11 4 -5 -29 -12 -71 -16
-121 -10 -125 -12 -26 -14 99 -1 142 -20 51 -22 -29 -1 -78 -4 -108 -9 -49 -6
-44 -7 48 -9 60 0 102 -5 102 -11 0 -6 -37 -10 -90 -10 -53 0 -90 -4 -90 -10
0 -6 34 -10 83 -10 100 0 136 -15 56 -24 -30 -3 -67 -8 -84 -9 -16 -2 7 -5 53
-6 125 -2 101 -21 -30 -23 l-113 -2 105 -3 c58 -2 109 -8 113 -12 5 -5 -25
-12 -69 -16 -131 -10 -134 -12 -24 -14 118 -1 128 -18 15 -24 l-70 -3 72 -2
c91 -3 103 -19 21 -26 -35 -3 -81 -8 -103 -10 -22 -2 3 -3 56 -2 110 1 135
-16 37 -25 l-63 -6 68 -1 c37 -1 67 -6 67 -11 0 -5 -39 -12 -87 -16 -122 -9
-129 -16 -10 -9 65 3 97 2 97 -5 0 -6 -10 -12 -22 -12 l-23 -2 23 -4 c26 -5
30 -23 5 -24 -12 -1 -9 -4 7 -9 l25 -7 -25 -12 c-24 -11 -24 -11 -2 -7 17 3
22 1 18 -9 -11 -29 74 -132 143 -173 115 -67 304 -4 361 121 14 31 15 45 6 78
-21 78 28 118 114 92 25 -7 55 -13 68 -13 12 0 22 -4 22 -10 0 -20 -42 -32
-90 -25 -30 4 -50 3 -54 -4 -9 -14 11 -51 40 -74 l23 -17 -35 -63 c-37 -65
-92 -129 -105 -122 -4 3 -10 -2 -13 -11 -3 -8 -10 -12 -16 -9 -5 3 -10 1 -10
-5 0 -6 -4 -8 -10 -5 -5 3 -10 -1 -10 -10 0 -11 -5 -15 -15 -11 -9 3 -15 0
-15 -10 0 -8 -4 -12 -10 -9 -5 3 -10 2 -10 -4 0 -6 -6 -8 -14 -5 -7 3 -20 -1
-27 -8 -8 -7 -24 -13 -36 -12 -13 1 -23 -2 -23 -5 0 -4 -10 -8 -22 -9 -13 -1
-36 -4 -53 -6 -16 -1 -33 2 -37 8 -5 7 -8 6 -9 -4 0 -10 -3 -8 -9 5 -7 16 -9
17 -9 3 -1 -17 -41 -22 -41 -5 0 4 -5 5 -12 1 -8 -5 -9 -1 -5 12 7 18 6 18 -7
2 -17 -23 -30 -23 -21 0 5 13 3 14 -6 5 -6 -6 -18 -9 -25 -6 -12 4 -12 8 -2
22 10 13 9 13 -8 -1 -28 -24 -37 -22 -23 5 12 21 11 21 -6 7 -17 -14 -18 -13
-11 5 6 16 5 18 -5 8 -20 -20 -31 -15 -19 7 10 19 9 20 -9 9 -26 -17 -58 5
-39 28 9 12 7 13 -13 9 -21 -5 -30 2 -65 56 -109 165 -123 242 -159 876 -7
111 -6 112 17 121 33 14 230 13 284 0z m-1427 -199 c54 -135 145 -257 238
-321 81 -56 42 -82 -42 -27 -82 55 -170 183 -214 315 -21 63 -28 115 -13 98 5
-6 19 -35 31 -65z m400 -957 c12 -131 15 -312 5 -337 -10 -27 -23 -18 -35 27
-14 48 -19 410 -6 442 14 34 24 0 36 -132z m851 -333 c16 -11 45 -27 66 -36
50 -21 37 -27 -21 -10 -63 19 -44 2 31 -29 32 -14 55 -25 49 -26 -24 -3 -80 4
-102 12 -37 14 -27 0 12 -17 19 -7 51 -14 70 -14 24 0 34 -4 29 -11 -10 -17
-109 -4 -150 20 -19 12 -32 16 -28 10 11 -18 97 -69 116 -69 10 0 18 -5 18
-11 0 -22 -102 13 -142 49 -25 21 -22 0 3 -32 36 -45 76 -60 162 -59 65 0 76
-2 66 -13 -16 -19 -139 -18 -187 1 -20 9 -48 26 -62 38 l-25 22 25 -28 c35
-41 93 -67 161 -75 70 -8 78 -26 15 -30 -89 -6 -175 38 -212 109 -29 57 -13
140 39 197 25 27 31 27 67 2z m-764 -286 c57 -24 158 -34 228 -22 l61 9 39
-43 c46 -52 76 -108 76 -143 0 -32 -18 -33 -26 -1 -3 13 -16 34 -29 46 -33 31
-74 17 -98 -33 -22 -44 -32 -46 -51 -8 -19 36 -68 58 -104 45 -15 -5 -36 -24
-47 -41 -25 -40 -39 -41 -55 -3 -17 40 -48 49 -72 20 -10 -12 -18 -28 -18 -36
0 -8 -7 -14 -15 -14 -28 0 -18 82 20 165 20 41 39 75 44 75 5 0 26 -7 47 -16z
m759 -18 c33 -14 76 -26 96 -26 25 0 48 -9 74 -30 22 -18 50 -30 66 -30 33 0
35 -7 15 -47 -8 -15 -17 -36 -20 -45 -8 -28 -30 -21 -46 15 -14 29 -19 32 -60
32 -39 0 -47 -4 -68 -35 -26 -39 -55 -46 -60 -15 -6 30 -32 55 -57 55 -27 0
-75 -36 -75 -56 0 -20 -25 -28 -49 -14 -38 20 -27 64 29 124 35 37 50 61 50
81 0 32 11 32 105 -9z m293 -186 c-2 -17 -10 -26 -26 -28 -24 -4 -24 2 -5 72
5 20 6 20 20 0 7 -10 13 -30 11 -44z m-704 18 c19 -27 21 -57 4 -62 -7 -3 -32
-7 -56 -10 l-43 -6 7 37 c4 21 11 44 17 51 15 19 54 14 71 -10z m378 5 c45
-41 8 -83 -57 -65 -33 10 -36 33 -8 65 20 21 41 22 65 0z m206 -16 c22 -46 11
-57 -58 -57 -67 0 -72 6 -40 58 17 28 25 33 53 30 23 -2 35 -10 45 -31z m-765
5 c9 -10 18 -29 19 -43 3 -23 1 -24 -64 -27 -61 -3 -68 -1 -68 16 0 57 78 93
113 54z m-193 -11 c14 -27 13 -61 -2 -61 -7 0 -23 3 -35 6 -19 5 -22 11 -17
33 4 14 9 29 11 34 8 14 32 7 43 -12z"/>
<path d="M3063 4053 c20 -2 54 -2 75 0 20 2 3 4 -38 4 -41 0 -58 -2 -37 -4z"/>
<path d="M1639 4033 c-13 -16 -12 -17 4 -4 16 13 21 21 13 21 -2 0 -10 -8 -17
-17z"/>
<path d="M1589 3993 c-13 -16 -12 -17 4 -4 9 7 17 15 17 17 0 8 -8 3 -21 -13z"/>
<path d="M3005 3977 c-43 -15 -105 -45 -105 -52 0 -2 26 8 57 22 59 27 160 36
228 20 26 -6 27 -6 11 4 -29 18 -145 21 -191 6z"/>
<path d="M3280 3908 c41 -45 50 -53 50 -45 0 2 -21 23 -47 47 l-48 45 45 -47z"/>
<path d="M2985 3905 l-30 -14 30 7 c17 4 66 7 110 7 92 -1 126 -14 194 -79 24
-22 39 -32 33 -21 -17 33 -74 83 -114 99 -47 20 -182 20 -223 1z"/>
<path d="M3011 3849 c-46 -14 -34 -21 15 -8 50 14 141 6 185 -16 19 -9 51 -33
72 -53 20 -20 37 -31 37 -25 0 14 -62 68 -103 89 -38 20 -158 28 -206 13z"/>
<path d="M1774 3813 c-23 -31 -24 -34 -5 -18 22 19 46 55 38 55 -3 0 -17 -17
-33 -37z"/>
<path d="M2929 3803 c-13 -16 -12 -17 4 -4 16 13 21 21 13 21 -2 0 -10 -8 -17
-17z"/>
<path d="M2984 3756 c-28 -13 -54 -28 -58 -34 -3 -5 14 0 37 12 51 25 160 33
222 16 24 -7 63 -28 87 -47 l43 -35 -46 45 c-73 72 -186 89 -285 43z"/>
<path d="M3917 4366 c-40 -15 -57 -25 -41 -27 5 0 16 -2 24 -3 8 -2 40 -6 72
-10 76 -10 184 -63 285 -142 46 -36 86 -64 88 -62 8 8 -207 196 -253 221 -62
34 -125 42 -175 23z"/>
<path d="M2318 2873 c12 -2 32 -2 45 0 12 2 2 4 -23 4 -25 0 -35 -2 -22 -4z"/>
<path d="M2318 2703 c7 -3 16 -2 19 1 4 3 -2 6 -13 5 -11 0 -14 -3 -6 -6z"/>
<path d="M2461 1540 c-16 -14 -38 -20 -73 -20 -30 0 -47 -4 -43 -10 3 -5 26
-10 50 -10 36 0 51 6 77 30 36 32 27 41 -11 10z"/>
<path d="M2487 1474 c-32 -17 -107 -23 -152 -11 l-30 7 25 -15 c46 -27 162
-12 184 24 9 14 7 14 -27 -5z"/>
<path d="M2490 1418 c-27 -15 -50 -18 -104 -16 -63 4 -67 3 -40 -9 55 -23 125
-12 179 31 27 21 8 18 -35 -6z"/>
<path d="M3088 2603 c17 -2 47 -2 65 0 17 2 3 4 -33 4 -36 0 -50 -2 -32 -4z"/>
<path d="M3063 2573 c15 -2 39 -2 55 0 15 2 2 4 -28 4 -30 0 -43 -2 -27 -4z"/>
<path d="M3123 2093 c15 -2 37 -2 50 0 12 2 0 4 -28 4 -27 0 -38 -2 -22 -4z"/>
<path d="M3153 2063 c9 -2 23 -2 30 0 6 3 -1 5 -18 5 -16 0 -22 -2 -12 -5z"/>
<path d="M3078 2053 c6 -2 18 -2 25 0 6 3 1 5 -13 5 -14 0 -19 -2 -12 -5z"/>
<path d="M3148 2033 c6 -2 18 -2 25 0 6 3 1 5 -13 5 -14 0 -19 -2 -12 -5z"/>
<path d="M3138 2003 c7 -3 16 -2 19 1 4 3 -2 6 -13 5 -11 0 -14 -3 -6 -6z"/>
<path d="M3170 1800 c-9 -6 -10 -10 -3 -10 6 0 15 5 18 10 8 12 4 12 -15 0z"/>
</g>
</svg>
